<svg xmlns="http://www.w3.org/2000/svg" width="135" height="32" viewBox="0 0 135 32">
    <g fill="none" fill-rule="evenodd">
        <path fill="#11E374" d="M0 21.907V2.694C0 1.807.197 1.136.592.682.987.227 1.52 0 2.191 0c.67 0 1.211.224 1.622.673.411.45.617 1.123.617 2.02v19.214c0 .898-.208 1.572-.625 2.02-.416.45-.955.674-1.614.674-.65 0-1.177-.232-1.582-.698C.203 23.438 0 22.773 0 21.907M10.712 14.167h8.033c-.108-1.515-.517-2.648-1.225-3.4-.709-.752-1.642-1.128-2.8-1.128-1.103 0-2.01.382-2.718 1.144-.709.763-1.139 1.89-1.29 3.384m8.666 2.515h-8.666c.01 1.006.214 1.893.609 2.661.395.769.92 1.347 1.574 1.737a4.16 4.16 0 0 0 2.166.584c.53 0 1.014-.062 1.452-.187.439-.124.863-.319 1.274-.584.411-.265.79-.549 1.136-.852.346-.303.795-.714 1.347-1.233.227-.195.552-.292.974-.292.454 0 .822.124 1.103.373s.422.6.422 1.055c0 .4-.157.868-.47 1.403-.314.536-.787 1.05-1.42 1.542-.633.492-1.428.9-2.386 1.225-.957.325-2.058.487-3.302.487-2.845 0-5.058-.811-6.637-2.434-1.58-1.623-2.37-3.824-2.37-6.605 0-1.308.195-2.523.585-3.643.39-1.12.957-2.08 1.704-2.88.746-.8 1.665-1.415 2.759-1.842 1.092-.427 2.304-.641 3.634-.641 1.731 0 3.216.365 4.455 1.095 1.238.73 2.166 1.674 2.783 2.832s.925 2.337.925 3.538c0 1.114-.32 1.836-.958 2.166-.638.33-1.536.495-2.693.495M39.502 15.92v5.89c0 .93-.211 1.628-.633 2.093-.422.466-.98.698-1.671.698-.671 0-1.215-.232-1.631-.698-.417-.465-.625-1.163-.625-2.093V14.75c0-1.114-.038-1.98-.114-2.597-.075-.616-.28-1.122-.616-1.517-.336-.395-.866-.592-1.59-.592-1.45 0-2.405.497-2.865 1.493-.46.995-.69 2.423-.69 4.284v5.988c0 .92-.208 1.615-.624 2.085-.417.47-.966.706-1.647.706-.671 0-1.22-.235-1.647-.706-.428-.47-.641-1.165-.641-2.085V9.136c0-.832.192-1.466.576-1.898.384-.433.89-.65 1.517-.65.606 0 1.112.204 1.517.61.406.405.609.964.609 1.679v.421c.768-.919 1.59-1.595 2.466-2.028.877-.433 1.85-.649 2.921-.649 1.114 0 2.072.222 2.873.665.8.444 1.46 1.115 1.98 2.012.746-.909 1.546-1.582 2.401-2.02.855-.438 1.801-.657 2.84-.657 1.211 0 2.256.238 3.132.714a4.543 4.543 0 0 1 1.963 2.045c.379.8.568 2.06.568 3.78v8.65c0 .93-.21 1.628-.632 2.093-.423.466-.98.698-1.672.698-.67 0-1.22-.235-1.647-.706-.427-.47-.641-1.165-.641-2.085v-7.448c0-.953-.04-1.715-.122-2.289-.08-.573-.3-1.054-.657-1.444-.357-.39-.898-.584-1.623-.584a2.97 2.97 0 0 0-1.663.52 3.526 3.526 0 0 0-1.225 1.395c-.325.746-.487 2.066-.487 3.96M88.44 9.039v.535c.778-1.027 1.63-1.782 2.555-2.263.925-.482 1.988-.722 3.189-.722 1.168 0 2.212.254 3.132.762a4.85 4.85 0 0 1 2.06 2.158 5.14 5.14 0 0 1 .569 1.753c.086.628.13 1.428.13 2.402v8.243c0 .888-.204 1.558-.61 2.013-.405.454-.932.681-1.581.681-.66 0-1.196-.233-1.607-.698-.411-.464-.617-1.13-.617-1.996v-7.383c0-1.46-.202-2.578-.608-3.351-.406-.773-1.215-1.16-2.426-1.16-.79 0-1.51.235-2.158.705-.65.471-1.126 1.118-1.429 1.94-.216.66-.324 1.893-.324 3.7v5.55c0 .897-.209 1.57-.625 2.02-.416.449-.955.673-1.615.673-.638 0-1.163-.233-1.574-.698-.41-.464-.616-1.13-.616-1.996V9.104c0-.844.184-1.474.552-1.89.367-.417.87-.625 1.509-.625.39 0 .74.092 1.055.275.313.184.565.46.754.828.19.368.284.817.284 1.347M106.194 14.167h8.033c-.108-1.515-.517-2.648-1.225-3.4-.71-.752-1.642-1.128-2.8-1.128-1.103 0-2.01.382-2.718 1.144-.708.763-1.139 1.89-1.29 3.384m8.666 2.515h-8.666c.01 1.006.214 1.893.609 2.661.394.769.92 1.347 1.574 1.737a4.16 4.16 0 0 0 2.166.584 5.31 5.31 0 0 0 1.452-.187 4.72 4.72 0 0 0 1.275-.584c.41-.265.789-.549 1.135-.852.347-.303.796-.714 1.347-1.233.227-.195.552-.292.974-.292.455 0 .822.124 1.103.373.282.249.422.6.422 1.055 0 .4-.157.868-.47 1.403-.314.536-.787 1.05-1.42 1.542-.633.492-1.428.9-2.386 1.225-.957.325-2.058.487-3.302.487-2.845 0-5.057-.811-6.637-2.434-1.58-1.623-2.37-3.824-2.37-6.605 0-1.308.195-2.523.585-3.643.39-1.12.957-2.08 1.704-2.88.746-.8 1.665-1.415 2.759-1.842 1.092-.427 2.304-.641 3.635-.641 1.73 0 3.215.365 4.454 1.095 1.239.73 2.166 1.674 2.783 2.832.616 1.158.925 2.337.925 3.538 0 1.114-.32 1.836-.957 2.166-.639.33-1.537.495-2.694.495"/>
        <path fill="#11E374" d="M124.14 25.153l.405-.99-5.453-13.729c-.335-.79-.503-1.363-.503-1.72 0-.378.098-.73.292-1.055.195-.324.463-.584.804-.778.34-.195.695-.293 1.063-.293.638 0 1.12.203 1.444.609.324.406.61.987.86 1.745l3.749 10.905 3.553-10.143c.281-.822.536-1.466.763-1.931.227-.465.468-.779.722-.94.254-.164.614-.245 1.08-.245.335 0 .656.09.965.268a1.947 1.947 0 0 1 .966 1.68c-.044.206-.114.498-.212.876-.097.379-.216.763-.356 1.152l-5.778 15.125c-.497 1.33-.984 2.374-1.46 3.131a4.81 4.81 0 0 1-1.89 1.745c-.785.405-1.843.608-3.173.608-1.298 0-2.272-.14-2.921-.422-.65-.281-.974-.795-.974-1.541 0-.509.154-.9.463-1.177.308-.276.765-.414 1.37-.414.239 0 .471.033.699.098.28.065.524.097.73.097.508 0 .909-.076 1.2-.227.293-.152.555-.414.788-.787.232-.373.5-.922.803-1.647M75.306 26.827c4.488-3.393 6.346-8.975 5.214-14.135l.002-.013c-.414-2.086-.227-4.44.072-5.5.297-1.065-.22-1.69-.22-1.69s-.458-.666-1.562-.669c-.999-.003-2.58.05-4.694-1.072-.215-.127-.43-.251-.652-.37l-.041-.024c-.004-.003-.01-.003-.013-.008-4.646-2.448-10.481-2.17-14.946 1.208-4.54 3.431-6.388 9.102-5.175 14.307.322 2.012.037 4.258-.246 5.268-.297 1.064.22 1.688.22 1.688s.459.667 1.563.668c1.009.003 2.613-.048 4.764 1.108 4.754 2.912 11 2.798 15.714-.766"/>
        <path fill="#FFF100" d="M73.368 24.262c-4.736 3.581-11.476 2.643-15.056-2.09-3.58-4.734-2.643-11.475 2.093-15.053 4.733-3.58 11.472-2.645 15.051 2.092 3.582 4.732 2.644 11.473-2.088 15.051"/>
    </g>
</svg>
